<svg xmlns="http://www.w3.org/2000/svg" version="1.1" viewBox="0 0 64 64" width="64" height="64">
<g stroke-width="2.00" fill="none" stroke-linecap="butt">
<path stroke="#d2fefc" vector-effect="non-scaling-stroke" d="&#xA;  M 34.46 31.25&#xA;  C 31.21 29.98 32.65 57.88 32.71 60.70&#xA;  A 1.25 1.25 0.0 0 1 30.79 61.78&#xA;  L 24.94 58.11&#xA;  Q 24.61 57.90 24.28 58.13&#xA;  Q 24.08 58.28 23.83 58.26&#xA;  Q 23.52 58.24 23.66 58.52&#xA;  Q 23.80 58.78 23.75 58.96"/>
<path stroke="#faf799" vector-effect="non-scaling-stroke" d="&#xA;  M 58.96 26.25&#xA;  L 57.28 26.69&#xA;  Q 56.71 26.84 56.56 26.27&#xA;  L 56.00 24.04&#xA;  Q 55.47 21.94 54.30 23.76&#xA;  Q 53.88 24.42 53.71 25.25"/>
<path stroke="#faf799" vector-effect="non-scaling-stroke" d="&#xA;  M 39.54 53.50&#xA;  Q 38.58 54.16 39.33 55.08&#xA;  Q 39.65 55.48 40.09 55.22&#xA;  Q 46.73 51.33 53.34 47.32&#xA;  Q 56.57 45.37 55.67 41.78&#xA;  Q 55.53 41.22 56.09 41.06&#xA;  Q 57.03 40.79 57.66 41.39&#xA;  Q 58.02 41.73 57.98 42.22&#xA;  L 57.72 45.88&#xA;  Q 57.69 46.36 57.38 46.74&#xA;  Q 56.66 47.60 55.68 48.16&#xA;  Q 47.41 52.93 38.40 58.36&#xA;  A 1.00 1.00 0.0 0 1 36.88 57.49&#xA;  L 37.21 32.46&#xA;  Q 37.22 31.94 37.68 31.73&#xA;  Q 38.98 31.11 38.96 29.75"/>
<path stroke="#d2fefc" vector-effect="non-scaling-stroke" d="&#xA;  M 9.71 18.50&#xA;  L 8.27 19.45&#xA;  Q 7.90 19.70 7.90 20.13&#xA;  L 7.68 43.42&#xA;  Q 7.68 43.97 8.23 44.00&#xA;  Q 9.00 44.04 9.71 43.75"/>
</g>
<path fill="#acffff" d="&#xA;  M 34.46 31.25&#xA;  C 31.21 29.98 32.65 57.88 32.71 60.70&#xA;  A 1.25 1.25 0.0 0 1 30.79 61.78&#xA;  L 24.94 58.11&#xA;  Q 24.61 57.90 24.28 58.13&#xA;  Q 24.08 58.28 23.83 58.26&#xA;  Q 23.52 58.24 23.66 58.52&#xA;  Q 23.80 58.78 23.75 58.96&#xA;  L 5.37 47.87&#xA;  Q 5.00 47.64 5.00 47.22&#xA;  L 5.00 16.00&#xA;  A 1.42 1.42 0.0 0 1 5.75 14.75&#xA;  L 31.72 0.51&#xA;  Q 32.14 0.28 32.56 0.52&#xA;  Q 44.28 7.18 56.05 13.69&#xA;  Q 58.02 14.77 59.00 15.68&#xA;  Q 59.64 16.27 58.89 16.70&#xA;  Q 47.12 23.47 35.37 30.07&#xA;  C 34.91 30.33 34.70 30.82 34.46 31.25&#xA;  Z&#xA;  M 9.71 18.50&#xA;  L 8.27 19.45&#xA;  Q 7.90 19.70 7.90 20.13&#xA;  L 7.68 43.42&#xA;  Q 7.68 43.97 8.23 44.00&#xA;  Q 9.00 44.04 9.71 43.75&#xA;  L 9.75 44.61&#xA;  Q 9.78 45.13 10.22 45.40&#xA;  L 28.91 56.70&#xA;  A 0.41 0.41 0.0 0 0 29.53 56.36&#xA;  L 29.83 32.08&#xA;  A 0.66 0.63 -76.3 0 0 29.50 31.51&#xA;  Q 21.72 27.13 14.27 22.80&#xA;  C 12.74 21.91 11.71 20.74 12.70 19.04&#xA;  A 2.20 2.19 30.2 0 1 15.69 18.25&#xA;  L 30.72 26.97&#xA;  Q 31.17 27.23 31.63 26.98&#xA;  L 49.98 16.62&#xA;  A 0.55 0.55 0.0 0 0 49.98 15.66&#xA;  L 32.41 5.78&#xA;  A 0.70 0.68 44.3 0 0 31.72 5.78&#xA;  C 29.13 7.20 9.95 17.22 9.71 18.50&#xA;  Z"/>
<path fill="#fdf23a" d="&#xA;  M 58.96 26.25&#xA;  L 57.28 26.69&#xA;  Q 56.71 26.84 56.56 26.27&#xA;  L 56.00 24.04&#xA;  Q 55.47 21.94 54.30 23.76&#xA;  Q 53.88 24.42 53.71 25.25&#xA;  C 51.37 26.60 39.65 32.65 39.71 35.00&#xA;  Q 39.94 44.26 39.54 53.50&#xA;  Q 38.58 54.16 39.33 55.08&#xA;  Q 39.65 55.48 40.09 55.22&#xA;  Q 46.73 51.33 53.34 47.32&#xA;  Q 56.57 45.37 55.67 41.78&#xA;  Q 55.53 41.22 56.09 41.06&#xA;  Q 57.03 40.79 57.66 41.39&#xA;  Q 58.02 41.73 57.98 42.22&#xA;  L 57.72 45.88&#xA;  Q 57.69 46.36 57.38 46.74&#xA;  Q 56.66 47.60 55.68 48.16&#xA;  Q 47.41 52.93 38.40 58.36&#xA;  A 1.00 1.00 0.0 0 1 36.88 57.49&#xA;  L 37.21 32.46&#xA;  Q 37.22 31.94 37.68 31.73&#xA;  Q 38.98 31.11 38.96 29.75&#xA;  L 58.11 18.59&#xA;  Q 58.72 18.23 58.75 18.94&#xA;  L 58.96 26.25&#xA;  Z"/>
<path fill="#f7fcf8" d="&#xA;  M 9.71 18.50&#xA;  L 9.71 43.75&#xA;  Q 9.00 44.04 8.23 44.00&#xA;  Q 7.68 43.97 7.68 43.42&#xA;  L 7.90 20.13&#xA;  Q 7.90 19.70 8.27 19.45&#xA;  L 9.71 18.50&#xA;  Z"/>
<path fill="#f7fcf8" d="&#xA;  M 58.96 26.25&#xA;  C 59.55 30.48 53.60 30.22 53.71 25.25&#xA;  Q 53.88 24.42 54.30 23.76&#xA;  Q 55.47 21.94 56.00 24.04&#xA;  L 56.56 26.27&#xA;  Q 56.71 26.84 57.28 26.69&#xA;  L 58.96 26.25&#xA;  Z"/>
<path fill="#f7fcf8" d="&#xA;  M 38.96 29.75&#xA;  Q 38.98 31.11 37.68 31.73&#xA;  Q 37.22 31.94 37.21 32.46&#xA;  L 36.88 57.49&#xA;  A 1.00 1.00 0.0 0 0 38.40 58.36&#xA;  Q 47.41 52.93 55.68 48.16&#xA;  Q 56.66 47.60 57.38 46.74&#xA;  Q 57.69 46.36 57.72 45.88&#xA;  L 57.98 42.22&#xA;  Q 58.02 41.73 57.66 41.39&#xA;  Q 57.03 40.79 56.09 41.06&#xA;  Q 55.53 41.22 55.67 41.78&#xA;  Q 56.57 45.37 53.34 47.32&#xA;  Q 46.73 51.33 40.09 55.22&#xA;  Q 39.65 55.48 39.33 55.08&#xA;  Q 38.58 54.16 39.54 53.50&#xA;  L 53.61 45.37&#xA;  Q 54.06 45.11 54.02 44.60&#xA;  C 53.83 42.16 54.30 37.82 58.13 39.30&#xA;  Q 58.75 39.54 58.75 40.20&#xA;  L 58.75 47.24&#xA;  Q 58.75 47.86 58.22 48.18&#xA;  L 36.19 61.18&#xA;  Q 35.77 61.42 35.77 60.94&#xA;  Q 35.70 47.05 35.75 33.24&#xA;  Q 35.76 30.64 38.96 29.75&#xA;  Z"/>
<path fill="#f7fcf8" d="&#xA;  M 34.46 31.25&#xA;  L 34.15 61.95&#xA;  Q 34.15 62.51 33.66 62.78&#xA;  L 32.25 63.54&#xA;  Q 31.74 63.81 31.24 63.51&#xA;  L 23.75 58.96&#xA;  Q 23.80 58.78 23.66 58.52&#xA;  Q 23.52 58.24 23.83 58.26&#xA;  Q 24.08 58.28 24.28 58.13&#xA;  Q 24.61 57.90 24.94 58.11&#xA;  L 30.79 61.78&#xA;  A 1.25 1.25 0.0 0 0 32.71 60.70&#xA;  C 32.65 57.88 31.21 29.98 34.46 31.25&#xA;  Z"/>
</svg>